<?xml version="1.0" encoding="UTF-8"?>
<svg id="logosandtypes_com" data-name="logosandtypes com" xmlns="http://www.w3.org/2000/svg" viewBox="0 0 150 150">
  <defs>
    <style>
      .cls-1 {
        fill: #1a285f;
        fill-rule: evenodd;
      }

      .cls-2 {
        fill: none;
      }
    </style>
  </defs>
  <path class="cls-2" d="M0,0H150V150H0V0Z"/>
  <path class="cls-1" d="M142,74.71c0-36.9-29.93-66.82-66.86-66.82-88.68,3.52-88.66,130.13,0,133.63,36.92,0,66.86-29.91,66.86-66.82ZM62.98,37.58c-.53,1.03-.53,2.38-.53,5.08v15.3c0,1.05-.02,1.38,.45,2.09,.41,.57,4.21,3.47,4.85,4.04,1.53,1.11,1.53,1.88,0,2.99,0,0-3.87,3.14-3.87,3.14-1.25,.97-1.46,1.41-1.43,2.99,0,0,0,33.52,0,33.52,.03,4.07-.17,5.45,2.63,7.19,1.03,.53,2.38,.53,5.08,.53h9.96c2.7,0,4.05,0,5.08-.53,2.8-1.74,2.6-3.11,2.63-7.19,0,0,0-15.3,0-15.3,.04-1.58-.17-2.02-1.43-2.99,0,0-3.87-3.14-3.87-3.14-.63-.51-.95-.77-1.06-1.08-.25-.94,.14-1.14,1.06-1.92,0,0,3.87-3.14,3.87-3.14,1.25-.97,1.46-1.41,1.43-2.99,0,0,0-33.52,0-33.52-.03-4.07,.17-5.45-2.63-7.19-1.03-.53-2.38-.53-5.08-.53h-9.96c-4.06,.02-5.46-.16-7.19,2.63Z"/>
</svg>